<svg width="96.024" height="23.616" viewBox="0 0 96.024 23.616" xmlns="http://www.w3.org/2000/svg"><g id="svgGroup" stroke-linecap="round" fill-rule="evenodd" font-size="9pt" stroke="#ffffff" stroke-width="0.25mm" fill="#ffffff" style="stroke:#ffffff;stroke-width:0.25mm;fill:#ffffff"><path d="M 83.832 23.136 L 84.312 21.336 A 2.378 2.378 0 0 0 84.592 21.474 Q 84.789 21.557 85.032 21.624 A 3.243 3.243 0 0 0 85.579 21.724 A 4.166 4.166 0 0 0 85.992 21.744 Q 87 21.744 87.792 21.096 A 2.881 2.881 0 0 0 88.256 20.601 Q 88.798 19.885 89.304 18.552 L 89.856 17.112 L 88.704 17.112 L 83.832 6.144 L 85.752 5.28 L 90.408 15.672 L 94.032 5.376 L 96.024 6.144 L 91.44 18.672 A 17.215 17.215 0 0 1 90.947 19.893 Q 90.683 20.478 90.403 20.955 A 7.406 7.406 0 0 1 89.928 21.672 A 5.824 5.824 0 0 1 89.237 22.443 Q 88.712 22.928 88.128 23.184 Q 87.144 23.616 85.944 23.616 A 6.101 6.101 0 0 1 85.349 23.588 Q 84.988 23.553 84.684 23.472 A 4.878 4.878 0 0 1 84.34 23.367 Q 84.179 23.311 84.046 23.25 A 2.067 2.067 0 0 1 83.832 23.136 Z M 11.736 1.824 L 11.04 3.744 Q 10.296 3.384 9.516 3.168 Q 8.846 2.982 7.972 2.956 A 9.769 9.769 0 0 0 7.68 2.952 A 5.081 5.081 0 0 0 5.783 3.301 A 4.795 4.795 0 0 0 4.932 3.744 A 5.08 5.08 0 0 0 3.404 5.324 A 6.475 6.475 0 0 0 3.024 6.024 Q 2.383 7.396 2.332 9.298 A 12.382 12.382 0 0 0 2.328 9.624 A 10.047 10.047 0 0 0 2.476 11.389 A 7.423 7.423 0 0 0 3.012 13.152 A 6.163 6.163 0 0 0 3.873 14.551 A 5.142 5.142 0 0 0 4.908 15.504 A 4.729 4.729 0 0 0 7.583 16.343 A 5.734 5.734 0 0 0 7.68 16.344 A 8.092 8.092 0 0 0 8.633 16.291 Q 9.227 16.22 9.72 16.056 Q 10.584 15.768 11.4 15.312 L 12.096 17.208 A 9.015 9.015 0 0 1 11.017 17.699 A 11.495 11.495 0 0 1 10.068 18.012 Q 9.002 18.315 7.61 18.335 A 13.78 13.78 0 0 1 7.416 18.336 Q 5.232 18.336 3.552 17.292 A 6.864 6.864 0 0 1 1.182 14.785 A 8.38 8.38 0 0 1 0.936 14.316 A 9.027 9.027 0 0 1 0.192 11.984 Q 0.006 10.96 0 9.795 A 15.082 15.082 0 0 1 0 9.72 Q 0 7.152 0.948 5.172 Q 1.896 3.192 3.636 2.076 A 7.049 7.049 0 0 1 6.679 1.017 A 8.95 8.95 0 0 1 7.704 0.96 A 10.953 10.953 0 0 1 8.918 1.024 A 8.448 8.448 0 0 1 9.888 1.188 A 9.174 9.174 0 0 1 11.682 1.799 A 8.552 8.552 0 0 1 11.736 1.824 Z M 36.168 17.04 L 37.08 15.24 Q 37.704 15.768 38.652 16.116 Q 39.6 16.464 40.68 16.464 A 6.507 6.507 0 0 0 41.42 16.425 Q 42.227 16.332 42.708 16.02 A 1.788 1.788 0 0 0 43.076 15.71 A 1.213 1.213 0 0 0 43.392 14.88 A 1.709 1.709 0 0 0 43.317 14.365 A 1.491 1.491 0 0 0 43.14 13.992 A 1.532 1.532 0 0 0 42.917 13.729 Q 42.674 13.496 42.272 13.268 A 5.35 5.35 0 0 0 42.216 13.236 Q 41.544 12.864 40.272 12.432 A 11.188 11.188 0 0 1 39.217 12.014 Q 38.709 11.78 38.307 11.519 A 4.64 4.64 0 0 1 37.644 11.004 A 2.718 2.718 0 0 1 36.854 9.565 A 4.031 4.031 0 0 1 36.768 8.712 A 2.909 2.909 0 0 1 37.716 6.548 A 4.191 4.191 0 0 1 38.028 6.276 A 4.264 4.264 0 0 1 39.477 5.545 Q 40.369 5.28 41.52 5.28 A 9.79 9.79 0 0 1 42.587 5.335 Q 43.141 5.396 43.625 5.524 A 6.07 6.07 0 0 1 43.656 5.532 Q 44.592 5.784 45.336 6.168 L 44.736 7.944 Q 44.088 7.56 43.26 7.32 A 6.006 6.006 0 0 0 42.184 7.117 A 7.641 7.641 0 0 0 41.424 7.08 A 4.952 4.952 0 0 0 40.719 7.127 Q 39.979 7.234 39.528 7.584 A 2.237 2.237 0 0 0 39.202 7.89 Q 38.88 8.265 38.88 8.688 A 1.181 1.181 0 0 0 39.239 9.54 A 1.7 1.7 0 0 0 39.384 9.672 Q 39.88 10.073 41.304 10.544 A 20.294 20.294 0 0 0 41.352 10.56 A 16.261 16.261 0 0 1 42.567 11.016 Q 43.722 11.507 44.384 12.055 A 3.587 3.587 0 0 1 44.664 12.312 Q 45.6 13.272 45.6 14.712 A 3.33 3.33 0 0 1 45.345 16.036 Q 45.033 16.764 44.34 17.293 A 3.988 3.988 0 0 1 44.244 17.364 A 4.813 4.813 0 0 1 42.714 18.078 Q 41.784 18.336 40.608 18.336 A 9.598 9.598 0 0 1 39.201 18.237 A 7.428 7.428 0 0 1 38.052 17.976 Q 36.993 17.642 36.276 17.121 A 4.375 4.375 0 0 1 36.168 17.04 Z M 47.4 17.04 L 48.312 15.24 Q 48.936 15.768 49.884 16.116 Q 50.832 16.464 51.912 16.464 A 6.507 6.507 0 0 0 52.652 16.425 Q 53.459 16.332 53.94 16.02 A 1.788 1.788 0 0 0 54.308 15.71 A 1.213 1.213 0 0 0 54.624 14.88 A 1.709 1.709 0 0 0 54.549 14.365 A 1.491 1.491 0 0 0 54.372 13.992 A 1.532 1.532 0 0 0 54.149 13.729 Q 53.906 13.496 53.504 13.268 A 5.35 5.35 0 0 0 53.448 13.236 Q 52.776 12.864 51.504 12.432 A 11.188 11.188 0 0 1 50.449 12.014 Q 49.941 11.78 49.539 11.519 A 4.64 4.64 0 0 1 48.876 11.004 A 2.718 2.718 0 0 1 48.086 9.565 A 4.031 4.031 0 0 1 48 8.712 A 2.909 2.909 0 0 1 48.948 6.548 A 4.191 4.191 0 0 1 49.26 6.276 A 4.264 4.264 0 0 1 50.709 5.545 Q 51.601 5.28 52.752 5.28 A 9.79 9.79 0 0 1 53.819 5.335 Q 54.373 5.396 54.857 5.524 A 6.07 6.07 0 0 1 54.888 5.532 Q 55.824 5.784 56.568 6.168 L 55.968 7.944 Q 55.32 7.56 54.492 7.32 A 6.006 6.006 0 0 0 53.416 7.117 A 7.641 7.641 0 0 0 52.656 7.08 A 4.952 4.952 0 0 0 51.951 7.127 Q 51.211 7.234 50.76 7.584 A 2.237 2.237 0 0 0 50.434 7.89 Q 50.112 8.265 50.112 8.688 A 1.181 1.181 0 0 0 50.471 9.54 A 1.7 1.7 0 0 0 50.616 9.672 Q 51.112 10.073 52.536 10.544 A 20.294 20.294 0 0 0 52.584 10.56 A 16.261 16.261 0 0 1 53.799 11.016 Q 54.954 11.507 55.616 12.055 A 3.587 3.587 0 0 1 55.896 12.312 Q 56.832 13.272 56.832 14.712 A 3.33 3.33 0 0 1 56.577 16.036 Q 56.265 16.764 55.572 17.293 A 3.988 3.988 0 0 1 55.476 17.364 A 4.813 4.813 0 0 1 53.946 18.078 Q 53.016 18.336 51.84 18.336 A 9.598 9.598 0 0 1 50.433 18.237 A 7.428 7.428 0 0 1 49.284 17.976 Q 48.225 17.642 47.508 17.121 A 4.375 4.375 0 0 1 47.4 17.04 Z M 79.44 18.048 L 77.28 18.048 L 77.28 7.896 L 75.36 7.896 L 75.36 6.024 L 77.28 6.024 L 77.28 4.56 Q 77.28 2.469 78.433 1.249 A 3.926 3.926 0 0 1 78.456 1.224 A 3.928 3.928 0 0 1 80.953 0.03 A 5.391 5.391 0 0 1 81.528 0 A 7.196 7.196 0 0 1 82.371 0.047 Q 82.789 0.096 83.153 0.198 A 4.292 4.292 0 0 1 83.256 0.228 Q 84 0.456 84.672 0.792 L 84.024 2.616 A 9.35 9.35 0 0 0 83.158 2.219 A 10.532 10.532 0 0 0 82.944 2.136 A 3.401 3.401 0 0 0 82.075 1.939 A 4.165 4.165 0 0 0 81.672 1.92 A 2.593 2.593 0 0 0 80.945 2.017 A 1.99 1.99 0 0 0 80.052 2.556 Q 79.533 3.095 79.454 4.058 A 4.39 4.39 0 0 0 79.44 4.416 L 79.44 6.024 L 83.136 6.024 L 83.136 7.896 L 79.44 7.896 L 79.44 18.048 Z M 68.328 6.024 L 67.68 7.848 A 7.301 7.301 0 0 0 66.983 7.542 A 5.621 5.621 0 0 0 66.396 7.356 A 4.93 4.93 0 0 0 65.666 7.23 A 6.325 6.325 0 0 0 65.04 7.2 A 3.813 3.813 0 0 0 63.3 7.594 A 3.872 3.872 0 0 0 62.22 8.412 A 4.017 4.017 0 0 0 61.268 10.177 Q 61.08 10.892 61.08 11.76 A 6.046 6.046 0 0 0 61.249 13.214 A 5.148 5.148 0 0 0 61.56 14.112 Q 62.04 15.168 62.892 15.792 A 3.231 3.231 0 0 0 64.613 16.406 A 4.057 4.057 0 0 0 64.896 16.416 Q 65.656 16.416 66.232 16.274 A 3.619 3.619 0 0 0 66.456 16.212 Q 67.102 16.009 67.842 15.627 A 11.028 11.028 0 0 0 67.848 15.624 L 68.52 17.448 Q 67.776 17.856 66.852 18.096 Q 65.928 18.336 64.752 18.336 A 6.433 6.433 0 0 1 63.063 18.123 A 5.298 5.298 0 0 1 61.644 17.508 Q 60.312 16.68 59.592 15.204 A 7.047 7.047 0 0 1 58.959 13.089 A 9.125 9.125 0 0 1 58.872 11.808 A 7.689 7.689 0 0 1 59.187 9.58 A 6.912 6.912 0 0 1 59.604 8.52 Q 60.336 7.032 61.704 6.156 A 5.536 5.536 0 0 1 64.024 5.335 A 7.106 7.106 0 0 1 64.92 5.28 Q 65.976 5.28 66.78 5.472 Q 67.584 5.664 68.328 6.024 Z M 30.984 6.576 L 30.984 5.568 L 32.952 5.568 L 32.952 15.024 Q 32.952 15.778 33.255 16.097 A 0.712 0.712 0 0 0 33.396 16.212 Q 33.84 16.488 34.368 16.488 L 33.912 18.168 A 4.253 4.253 0 0 1 32.889 18.055 Q 31.536 17.719 31.153 16.387 A 3.261 3.261 0 0 1 31.128 16.296 Q 30.576 17.064 29.628 17.7 Q 28.68 18.336 27.216 18.336 Q 25.656 18.336 24.384 17.544 A 5.507 5.507 0 0 1 22.605 15.738 A 6.701 6.701 0 0 1 22.356 15.3 A 6.535 6.535 0 0 1 21.725 13.394 A 8.795 8.795 0 0 1 21.6 11.88 A 7.954 7.954 0 0 1 21.839 9.896 A 6.712 6.712 0 0 1 22.356 8.52 Q 23.112 7.032 24.444 6.156 A 5.351 5.351 0 0 1 27.131 5.291 A 6.573 6.573 0 0 1 27.504 5.28 A 5.42 5.42 0 0 1 28.655 5.398 A 4.489 4.489 0 0 1 29.46 5.652 A 6.24 6.24 0 0 1 30.489 6.203 A 5.305 5.305 0 0 1 30.984 6.576 Z M 14.376 14.136 L 14.376 0.288 L 16.536 0.288 L 16.536 13.92 A 4.955 4.955 0 0 0 16.581 14.613 Q 16.63 14.956 16.731 15.233 A 1.914 1.914 0 0 0 17.076 15.84 A 1.767 1.767 0 0 0 18.176 16.434 A 2.574 2.574 0 0 0 18.576 16.464 Q 19.032 16.464 19.476 16.356 A 5.326 5.326 0 0 0 19.827 16.259 Q 19.996 16.205 20.139 16.145 A 2.866 2.866 0 0 0 20.232 16.104 L 20.76 17.856 A 4.356 4.356 0 0 1 20.375 18.004 Q 20.07 18.107 19.692 18.192 A 5.716 5.716 0 0 1 18.935 18.308 A 7.323 7.323 0 0 1 18.288 18.336 A 5.007 5.007 0 0 1 17.115 18.203 A 4.211 4.211 0 0 1 16.296 17.916 A 3.044 3.044 0 0 1 15.018 16.772 A 3.806 3.806 0 0 1 14.892 16.56 A 3.781 3.781 0 0 1 14.539 15.635 Q 14.432 15.201 14.395 14.691 A 7.705 7.705 0 0 1 14.376 14.136 Z M 73.2 18.048 L 71.04 18.048 L 71.04 5.568 L 73.2 5.568 L 73.2 18.048 Z M 30.792 14.856 L 30.792 8.16 Q 30.144 7.704 29.364 7.428 Q 28.584 7.152 27.72 7.152 A 3.822 3.822 0 0 0 26.527 7.333 A 3.366 3.366 0 0 0 25.692 7.74 A 3.912 3.912 0 0 0 24.488 9.042 A 4.791 4.791 0 0 0 24.312 9.372 A 4.959 4.959 0 0 0 23.891 10.734 A 6.643 6.643 0 0 0 23.808 11.808 Q 23.808 13.152 24.312 14.196 A 4.224 4.224 0 0 0 25.057 15.287 A 3.767 3.767 0 0 0 25.704 15.828 Q 26.592 16.416 27.696 16.416 Q 28.608 16.416 29.424 15.972 Q 30.24 15.528 30.792 14.856 Z M 71.073 2.997 A 1.433 1.433 0 0 0 72.12 3.432 Q 72.816 3.432 73.224 3.012 A 1.386 1.386 0 0 0 73.566 2.42 A 1.803 1.803 0 0 0 73.632 1.92 A 1.742 1.742 0 0 0 73.632 1.901 A 1.455 1.455 0 0 0 73.188 0.852 A 1.774 1.774 0 0 0 73.174 0.838 A 1.454 1.454 0 0 0 72.12 0.408 A 1.983 1.983 0 0 0 71.723 0.446 A 1.359 1.359 0 0 0 71.016 0.816 A 1.341 1.341 0 0 0 70.663 1.448 A 1.917 1.917 0 0 0 70.608 1.92 A 1.438 1.438 0 0 0 70.726 2.501 A 1.594 1.594 0 0 0 71.052 2.976 A 1.793 1.793 0 0 0 71.073 2.997 Z" vector-effect="non-scaling-stroke"/></g></svg>